<svg width="24" height="25" viewBox="0 0 24 25" fill="none" xmlns="http://www.w3.org/2000/svg">
<path d="M15.75 11.75V4.25L12 0.5L8.25 4.25V6.75H0.75V24.25H23.25V11.75H15.75ZM5.75 21.75H3.25V19.25H5.75V21.75ZM5.75 16.75H3.25V14.25H5.75V16.75ZM5.75 11.75H3.25V9.25H5.75V11.75ZM13.25 21.75H10.75V19.25H13.25V21.75ZM13.25 16.75H10.75V14.25H13.25V16.75ZM13.25 11.75H10.75V9.25H13.25V11.75ZM13.25 6.75H10.75V4.25H13.25V6.75ZM20.75 21.75H18.25V19.25H20.75V21.75ZM20.75 16.75H18.25V14.25H20.75V16.75Z" fill="#616161"/>
</svg>
