<svg width="285" height="285" viewBox="0 0 285 285" fill="none" xmlns="http://www.w3.org/2000/svg">
<g opacity="0.5">
<path d="M209.297 244.922H57.8907L48.9844 109.636C48.9228 108.703 49.0552 107.767 49.3733 106.888C49.6914 106.008 50.1883 105.204 50.8326 104.526C51.477 103.849 52.2548 103.312 53.117 102.949C53.9792 102.587 54.9072 102.408 55.8423 102.422H89.0626C90.5973 102.415 92.1126 102.766 93.4884 103.446C94.8642 104.126 96.0628 105.117 96.9891 106.341L107.855 120.234H209.297V138.047" stroke="#29ABE2" stroke-width="5" stroke-linecap="round" stroke-linejoin="round"/>
<path d="M234.234 184.359L241.716 155.859H82.3828L57.8906 244.922H208.495C211.286 244.915 213.995 243.985 216.202 242.278C218.409 240.57 219.989 238.18 220.697 235.481L227.466 209.831" stroke="#29ABE2" stroke-width="5" stroke-linecap="round" stroke-linejoin="round"/>
<path d="M146.953 218.203C149.322 215.854 152.523 214.535 155.859 214.535C159.196 214.535 162.397 215.854 164.766 218.203V218.203" stroke="#29ABE2" stroke-width="5" stroke-linecap="round" stroke-linejoin="round"/>
<path d="M120.234 191.484H129.141" stroke="#29ABE2" stroke-width="5" stroke-linecap="round" stroke-linejoin="round"/>
<path d="M182.578 191.484H191.484" stroke="#29ABE2" stroke-width="5" stroke-linecap="round" stroke-linejoin="round"/>
<path d="M183.647 32.1516C162.539 35.625 146.953 47.8266 146.953 62.3438C147.093 67.9868 149.314 73.3789 153.188 77.4844L146.953 102.422L172.425 89.686C179.997 92.2535 187.942 93.5476 195.938 93.5157C222.656 93.5157 244.922 79.5329 244.922 62.3438C244.922 48.0938 229.87 36.0704 209.297 32.3297" stroke="#29ABE2" stroke-width="5" stroke-linecap="round" stroke-linejoin="round"/>
<path d="M189.258 55.6641L202.617 69.0234" stroke="#29ABE2" stroke-width="5" stroke-linecap="round" stroke-linejoin="round"/>
<path d="M202.617 55.6641L189.258 69.0234" stroke="#29ABE2" stroke-width="5" stroke-linecap="round" stroke-linejoin="round"/>
</g>
</svg>
