<svg width="32" height="33" viewBox="0 0 32 33" fill="none" xmlns="http://www.w3.org/2000/svg">
<path d="M28.0491 0C27.0265 0 26.0247 0.396527 25.2525 1.16871L12.021 14.3585L11.7289 14.6506L11.6454 15.068L10.7271 19.7429L10.3097 21.7046L12.2715 21.2873L16.9463 20.369L17.3637 20.2855L17.6559 19.9933L30.8456 6.76183C32.3848 5.22268 32.3848 2.70786 30.8456 1.16871C30.0735 0.396527 29.0717 0 28.0491 0ZM28.0491 2.58786C28.3621 2.58786 28.67 2.7496 28.9674 3.047C29.5621 3.64179 29.5621 4.28876 28.9674 4.88355L16.028 17.8229L13.7324 18.282L14.1915 15.9863L27.1308 3.047C27.4282 2.7496 27.736 2.58786 28.0491 2.58786ZM0 5.30094V32.0144H26.7134V14.4002L24.0421 17.0715V29.343H2.67134V7.97228H14.9428L17.6142 5.30094H0Z" fill="#2196F3"/>
</svg>
