<svg width="22" height="22" viewBox="0 0 22 22" fill="none" xmlns="http://www.w3.org/2000/svg">
<path d="M8.83539 1.03348C8.94739 1.07148 9.05739 1.11748 9.16439 1.16948L10.4474 1.80148C10.6191 1.88601 10.808 1.92997 10.9994 1.92997C11.1908 1.92997 11.3797 1.88601 11.5514 1.80148L12.8344 1.16948C13.4887 0.84764 14.244 0.798839 14.9343 1.03381C15.6246 1.26878 16.1933 1.76828 16.5154 2.42248L16.5894 2.58448L16.6524 2.75148L17.1124 4.10448C17.2374 4.47248 17.5264 4.76048 17.8934 4.88548L19.2474 5.34548C19.6178 5.47149 19.957 5.67508 20.2424 5.94264C20.5278 6.2102 20.7529 6.53558 20.9025 6.89705C21.0521 7.25852 21.1229 7.64775 21.1102 8.03876C21.0974 8.42977 21.0013 8.81356 20.8284 9.16448L20.1974 10.4475C20.1129 10.6192 20.0689 10.8081 20.0689 10.9995C20.0689 11.1909 20.1129 11.3797 20.1974 11.5515L20.8284 12.8345C21.0011 13.1854 21.0971 13.5691 21.1098 13.9599C21.1224 14.3508 21.0516 14.7399 20.902 15.1013C20.7524 15.4626 20.5274 15.7879 20.242 16.0554C19.9567 16.3229 19.6176 16.5265 19.2474 16.6525L17.8934 17.1125C17.7123 17.1743 17.5478 17.2768 17.4125 17.4122C17.2773 17.5476 17.1749 17.7123 17.1134 17.8935L16.6524 19.2475C16.5264 19.6177 16.3228 19.9568 16.0553 20.2421C15.7878 20.5275 15.4625 20.7524 15.1012 20.9021C14.7399 21.0517 14.3508 21.1225 13.9599 21.1098C13.569 21.0972 13.1853 21.0012 12.8344 20.8285L11.5514 20.1975C11.3797 20.113 11.1908 20.069 10.9994 20.069C10.808 20.069 10.6191 20.113 10.4474 20.1975L9.16439 20.8285C8.81351 21.0012 8.42982 21.0972 8.03892 21.1098C7.64803 21.1225 7.25892 21.0517 6.89758 20.9021C6.53623 20.7524 6.21096 20.5275 5.94347 20.2421C5.67598 19.9568 5.47242 19.6177 5.34639 19.2475L4.88639 17.8935C4.8245 17.7123 4.7218 17.5477 4.58621 17.4124C4.45063 17.2772 4.28578 17.1749 4.10439 17.1135L2.75139 16.6525C2.38106 16.5266 2.04186 16.3231 1.75643 16.0556C1.471 15.7882 1.24591 15.4629 1.09618 15.1016C0.946446 14.7402 0.875526 14.3511 0.888152 13.9601C0.900777 13.5692 0.996657 13.1854 1.16939 12.8345L1.80139 11.5515C1.88592 11.3797 1.92987 11.1909 1.92987 10.9995C1.92987 10.8081 1.88592 10.6192 1.80139 10.4475L1.16939 9.16448C0.996657 8.81354 0.900777 8.42978 0.888152 8.03884C0.875526 7.64789 0.946446 7.25875 1.09618 6.89739C1.24591 6.53604 1.471 6.21078 1.75643 5.94333C2.04186 5.67589 2.38106 5.47241 2.75139 5.34648L4.10439 4.88648C4.2858 4.82473 4.45059 4.72208 4.58601 4.58649C4.72143 4.45089 4.82386 4.28598 4.88539 4.10448L5.34539 2.75148C5.46167 2.40947 5.6442 2.09373 5.88254 1.82228C6.12089 1.55083 6.41037 1.329 6.73447 1.16946C7.05857 1.00992 7.41092 0.915791 7.7714 0.89246C8.13189 0.86913 8.49343 0.91705 8.83539 1.03348ZM14.4684 7.96848L9.04939 13.3885L7.07539 11.0185C7.01323 10.9401 6.93603 10.875 6.84833 10.827C6.76063 10.7789 6.66421 10.7489 6.56473 10.7386C6.46525 10.7284 6.36472 10.7381 6.26907 10.7673C6.17341 10.7965 6.08456 10.8445 6.00773 10.9085C5.9309 10.9725 5.86765 11.0513 5.82171 11.1401C5.77576 11.2289 5.74804 11.326 5.74019 11.4257C5.73233 11.5254 5.74449 11.6257 5.77595 11.7206C5.80741 11.8155 5.85754 11.9032 5.92339 11.9785L8.42339 14.9785C8.49005 15.0585 8.57265 15.1238 8.66592 15.1701C8.7592 15.2165 8.8611 15.2429 8.96515 15.2477C9.0692 15.2525 9.17311 15.2356 9.27025 15.198C9.3674 15.1604 9.45565 15.103 9.52939 15.0295L15.5294 9.02948C15.6031 8.96082 15.6622 8.87802 15.7032 8.78602C15.7442 8.69402 15.7662 8.59471 15.768 8.49401C15.7698 8.3933 15.7512 8.29327 15.7135 8.19989C15.6758 8.1065 15.6196 8.02166 15.5484 7.95045C15.4772 7.87923 15.3924 7.82308 15.299 7.78536C15.2056 7.74764 15.1056 7.72911 15.0049 7.73089C14.9042 7.73267 14.8049 7.75471 14.7129 7.7957C14.6209 7.83669 14.5381 7.8958 14.4694 7.96948L14.4684 7.96848Z" fill="#195DE2"/>
</svg>
