<svg width="45" height="45" viewBox="0 0 45 45" fill="none" xmlns="http://www.w3.org/2000/svg">
  <path d="M0 5C0 2.23858 2.23858 0 5 0H40C42.7614 0 45 2.23858 45 5V40C45 42.7614 42.7614 45 40 45H5C2.23858 45 0 42.7614 0 40V5Z" fill="#64B5F6"/>
  <path fill-rule="evenodd" clip-rule="evenodd" d="M21.3632 4.55146C22.0563 4.10785 22.9442 4.10785 23.6373 4.55146L41.2155 15.8015C42.1967 16.4294 42.483 17.734 41.855 18.7152C41.2271 19.6964 39.9225 19.9828 38.9413 19.3548L37.2659 18.2825V35.1562C37.2659 38.2629 34.7475 40.7812 31.6409 40.7812H13.3596C10.253 40.7812 7.73463 38.2629 7.73463 35.1562V18.2825L6.0592 19.3548C5.07798 19.9828 3.77345 19.6964 3.14547 18.7152C2.51749 17.734 2.80384 16.4294 3.78507 15.8015L21.3632 4.55146ZM24.4162 18.461C24.7948 18.9919 24.9612 19.713 24.9612 20.3906V23.2031H18.2815C17.1165 23.2031 16.1721 24.1475 16.1721 25.3125V30.2344C16.1721 31.3993 17.1165 32.3438 18.2815 32.3438H26.719C27.884 32.3438 28.8284 31.3993 28.8284 30.2344V25.3125C28.8284 24.1475 27.884 23.2031 26.719 23.2031H26.3674V20.3906C26.3674 19.5214 26.1603 18.4846 25.5611 17.6445C24.9374 16.7699 23.9311 16.1719 22.5003 16.1719C21.0695 16.1719 20.0631 16.7699 19.4394 17.6445C18.8403 18.4846 18.6331 19.5214 18.6331 20.3906C18.6331 20.7789 18.9479 21.0937 19.3362 21.0938C19.7245 21.0938 20.0393 20.779 20.0393 20.3906C20.0393 19.713 20.2057 18.9919 20.5844 18.461C20.9384 17.9645 21.5141 17.5781 22.5003 17.5781C23.4864 17.5781 24.0621 17.9645 24.4162 18.461Z" fill="white"/>
  <path d="M23.5549 28.4767C23.9819 28.156 24.2581 27.6454 24.2581 27.0703C24.2581 26.0995 23.4711 25.3125 22.5003 25.3125C21.5294 25.3125 20.7424 26.0995 20.7424 27.0703C20.7424 27.6454 21.0186 28.156 21.4456 28.4767V29.1797C21.4456 29.7622 21.9178 30.2344 22.5003 30.2344C23.0827 30.2344 23.5549 29.7622 23.5549 29.1797V28.4767Z" fill="white"/>
</svg>
