<svg width="45" height="45" viewBox="0 0 45 45" fill="none" xmlns="http://www.w3.org/2000/svg">
  <path d="M0 5C0 2.23858 2.23858 0 5 0H40C42.7614 0 45 2.23858 45 5V40C45 42.7614 42.7614 45 40 45H5C2.23858 45 0 42.7614 0 40V5Z" fill="#81C784"/>
  <path d="M25.8241 25.0427C26.236 24.6308 26.236 23.9631 25.8241 23.5512C25.4123 23.1393 24.7445 23.1393 24.3326 23.5512L21.6409 26.2429L20.6679 25.2699C20.256 24.858 19.5882 24.858 19.1763 25.2699C18.7645 25.6818 18.7645 26.3496 19.1763 26.7615L20.8951 28.4802C21.307 28.8921 21.9748 28.8921 22.3866 28.4802L25.8241 25.0427Z" fill="white"/>
  <path fill-rule="evenodd" clip-rule="evenodd" d="M23.6373 4.55146C22.9442 4.10785 22.0563 4.10785 21.3632 4.55146L3.78507 15.8015C2.80384 16.4294 2.51749 17.734 3.14547 18.7152C3.77345 19.6964 5.07798 19.9828 6.0592 19.3548L7.73463 18.2825V35.1562C7.73463 38.2629 10.253 40.7812 13.3596 40.7812H31.6409C34.7475 40.7812 37.2659 38.2629 37.2659 35.1562V18.2825L38.9413 19.3548C39.9226 19.9828 41.2271 19.6964 41.8551 18.7152C42.483 17.734 42.1967 16.4294 41.2155 15.8015L23.6373 4.55146ZM30.2346 26.0156C30.2346 30.2872 26.7718 33.75 22.5003 33.75C18.2287 33.75 14.7659 30.2872 14.7659 26.0156C14.7659 21.744 18.2287 18.2812 22.5003 18.2812C26.7718 18.2812 30.2346 21.744 30.2346 26.0156Z" fill="white"/>
</svg>
