<svg width="45" height="45" viewBox="0 0 45 45" fill="none" xmlns="http://www.w3.org/2000/svg">
  <path d="M0 5C0 2.23858 2.23858 0 5 0H40C42.7614 0 45 2.23858 45 5V40C45 42.7614 42.7614 45 40 45H5C2.23858 45 0 42.7614 0 40V5Z" fill="#FF7166"/>
  <path fill-rule="evenodd" clip-rule="evenodd" d="M21.3632 4.55146C22.0563 4.10785 22.9442 4.10785 23.6373 4.55146L41.2155 15.8015C42.1967 16.4294 42.483 17.734 41.855 18.7152C41.2271 19.6964 39.9225 19.9828 38.9413 19.3548L37.2659 18.2825V35.1562C37.2659 38.2629 34.7475 40.7812 31.6409 40.7812H13.3596C10.253 40.7812 7.73463 38.2629 7.73463 35.1562V18.2825L6.0592 19.3548C5.07798 19.9828 3.77345 19.6964 3.14547 18.7152C2.51749 17.734 2.80384 16.4294 3.78507 15.8015L21.3632 4.55146ZM18.6331 22.5V23.2031H18.2815C17.1165 23.2031 16.1721 24.1475 16.1721 25.3125V30.2344C16.1721 31.3994 17.1165 32.3438 18.2815 32.3438H26.719C27.884 32.3438 28.8284 31.3994 28.8284 30.2344V25.3125C28.8284 24.1475 27.884 23.2031 26.719 23.2031H26.3674V22.5C26.3674 21.6307 26.1602 20.594 25.5611 19.7539C24.9374 18.8793 23.9311 18.2812 22.5002 18.2812C21.0694 18.2812 20.0631 18.8793 19.4394 19.7539C18.8402 20.594 18.6331 21.6307 18.6331 22.5ZM20.5843 20.5704C20.2057 21.1013 20.0393 21.8224 20.0393 22.5V23.2031H24.9612V22.5C24.9612 21.8224 24.7948 21.1013 24.4162 20.5704C24.0621 20.0738 23.4864 19.6875 22.5002 19.6875C21.5141 19.6875 20.9384 20.0738 20.5843 20.5704Z" fill="white"/>
</svg>
