<svg width="45" height="45" viewBox="0 0 45 45" fill="none" xmlns="http://www.w3.org/2000/svg">
  <path d="M0 5C0 2.23858 2.23858 0 5 0H40C42.7614 0 45 2.23858 45 5V40C45 42.7614 42.7614 45 40 45H5C2.23858 45 0 42.7614 0 40V5Z" fill="#FDE047"/>
  <path d="M23.5549 28.4766C23.5549 29.059 23.0827 29.5312 22.5003 29.5312C21.9178 29.5312 21.4456 29.059 21.4456 28.4766C21.4456 27.8941 21.9178 27.4219 22.5003 27.4219C23.0827 27.4219 23.5549 27.8941 23.5549 28.4766Z" fill="white"/>
  <path d="M22.5003 21.7969C23.0827 21.7969 23.5549 22.2691 23.5549 22.8516V24.9609C23.5549 25.5434 23.0827 26.0156 22.5003 26.0156C21.9178 26.0156 21.4456 25.5434 21.4456 24.9609V22.8516C21.4456 22.2691 21.9178 21.7969 22.5003 21.7969Z" fill="white"/>
  <path fill-rule="evenodd" clip-rule="evenodd" d="M21.3632 4.55146C22.0563 4.10785 22.9442 4.10785 23.6373 4.55146L41.2155 15.8015C42.1967 16.4294 42.483 17.734 41.855 18.7152C41.2271 19.6964 39.9225 19.9828 38.9413 19.3548L37.2659 18.2825V35.1562C37.2659 38.2629 34.7475 40.7812 31.6409 40.7812H13.3596C10.253 40.7812 7.73463 38.2629 7.73463 35.1562V18.2825L6.0592 19.3548C5.07798 19.9828 3.77345 19.6964 3.14547 18.7152C2.51749 17.734 2.80384 16.4294 3.78507 15.8015L21.3632 4.55146ZM15.1971 29.561C14.686 30.4981 15.3642 31.6406 16.4317 31.6406H28.5689C29.6363 31.6406 30.3146 30.4981 29.8034 29.561L23.7348 18.4352C23.2018 17.458 21.7987 17.458 21.2657 18.4352L15.1971 29.561Z" fill="white"/>
</svg>
