<svg width="21" height="20" viewBox="0 0 21 20" fill="none" xmlns="http://www.w3.org/2000/svg">
<path fill-rule="evenodd" clip-rule="evenodd" d="M18.4805 7.81344L20.7138 8.4801C20.8701 8.54678 20.9685 8.70366 20.9605 8.87344V11.1468C20.9596 11.3244 20.8436 11.481 20.6738 11.5334L18.4271 12.2001C18.271 12.7301 18.0587 13.2419 17.7938 13.7268L18.9005 15.7934C18.9847 15.9521 18.9549 16.1472 18.8271 16.2734L17.2338 17.8668C17.1076 17.9945 16.9124 18.0243 16.7538 17.9401L14.6805 16.8334C14.1974 17.0956 13.6879 17.3057 13.1605 17.4601L12.4938 19.7134C12.4414 19.8832 12.2848 19.9993 12.1071 20.0001H9.8538C9.67613 19.9993 9.51956 19.8832 9.46714 19.7134L8.80047 17.4668C8.26848 17.3131 7.75445 17.1031 7.26714 16.8401L5.20714 17.9401C5.0485 18.0243 4.85338 17.9945 4.72714 17.8668L3.1338 16.2734C3.00604 16.1472 2.97623 15.9521 3.06047 15.7934L4.1538 13.7001C3.87559 13.2082 3.65203 12.6873 3.48714 12.1468L1.26714 11.4801C1.09737 11.4277 0.981296 11.2711 0.980469 11.0934V8.8401C0.981296 8.66243 1.09737 8.50586 1.26714 8.45344L3.4738 7.78677C3.63692 7.23707 3.86051 6.70716 4.14047 6.20677L3.06047 4.20677C2.97623 4.04813 3.00604 3.85302 3.1338 3.72677L4.7538 2.14677C4.88005 2.019 5.07516 1.98919 5.2338 2.07344L7.2338 3.15344C7.73631 2.87302 8.26848 2.64942 8.82047 2.48677L9.48714 0.28677C9.53956 0.117006 9.69613 0.000930103 9.8738 0.000102918H12.1271C12.3037 -0.00385332 12.4626 0.106587 12.5205 0.273436L13.1871 2.4801C13.7346 2.64363 14.2622 2.86721 14.7605 3.14677L16.7938 2.0601C16.9524 1.97586 17.1476 2.00567 17.2738 2.13344L18.8671 3.73344C18.9949 3.85968 19.0247 4.0548 18.9405 4.21344L17.8471 6.2601C18.1137 6.7535 18.3261 7.27431 18.4805 7.81344ZM7.61291 11.4033C8.18044 12.7734 9.51744 13.6668 11.0005 13.6668C13.0255 13.6668 14.6671 12.0251 14.6671 10.0001C14.6671 8.51707 13.7738 7.18007 12.4036 6.61254C11.0335 6.04501 9.4564 6.35872 8.40774 7.40738C7.35908 8.45604 7.04538 10.0331 7.61291 11.4033Z" fill="white"/>
</svg>
